<svg version="1.1" class="splash-logo" xmlns="http://www.w3.org/2000/svg" xmlns:xlink="http://www.w3.org/1999/xlink" x="0px" y="0px" viewBox="0 0 1003.3 1000" enable-background="new 0 0 1003.3 1000" xml:space="preserve"><g><path fill="#ffffff" d="M496.7,456.2c0,2.4,0,3.8,0,5.3c0,68.7,0,137.3,0,206c0,12.3-0.4,24.6-0.8,37c-0.1,4,0.9,5.6,5.3,5.5c26.7-0.2,53.3-0.2,80,0c3.7,0,5-1,5-4.8c-0.1-50.3,0.1-100.7-0.1-151c-0.1-28-0.7-56-1-83.9c-0.1-5.1,0-10.1,0.8-15.4c4,7.8,7.7,15.7,12,23.3c29.2,51,58.4,102,87.8,152.8c14.3,24.6,29.1,49,43.4,73.5c2.3,3.9,4.7,5.5,9.3,5.5c30.7-0.2,61.3-0.1,92-0.1c8.6,0,7.8,1.1,7.8-7.7c0-112.7,0-225.3,0-338c0-35.7,0-71.3,0-107c0-2,0-4,0-7c1.5,1.4,2.5,2.1,3.3,3c41.2,53.5,68.7,113.2,81.4,179.7c5.7,29.9,8.6,60,7.7,90.3c-3,95-33.3,180.3-92.8,254.7c-58.8,73.3-134,121.7-224.8,145.8c-27.4,7.3-55.3,11.3-83.6,12.8c-79.2,4.1-153.7-12.6-223.6-49.9c-34.9-18.6-66.4-41.9-94.8-69.5c-2.5-2.4-2.9-4.9-2.6-8c3.3-27.9,6.6-55.8,9.9-83.7c2.8-23.6,6-47.1,8.7-70.7c2.9-24.4,5.4-48.9,8.3-73.3c3.1-26.8,6.5-53.5,9.7-80.2c2.2-18.3,4.2-36.7,6.3-55c0.2-2,0.7-4.1,2.1-6c2.4,11.5,4.5,23,7.2,34.4c10.1,43.2,20.2,86.4,30.7,129.5c8.2,33.7,17,67.3,25.3,101c0.9,3.8,2.4,5.1,6.3,5c22.5-0.2,45-0.2,67.5,0c4.1,0,5.7-1.5,7.2-5.1c32.6-82.4,65.2-164.7,97.9-247.1C495.5,457.5,495.8,457.3,496.7,456.2z"/><path fill="#ffffff" d="M755.5,586.5c-10.2-19.5-19.1-38.5-29.7-56.6c-29.7-50.7-60-101-90.1-151.5c-11.5-19.3-23.2-38.5-34.7-57.8c-1.8-3-3.7-4.4-7.4-4.4c-38.7,0.1-77.3,0.1-116,0.1c-2.8,0-4.9,0.2-6.2,3.4c-29.5,74.1-62.1,147-88.4,222.5c-4.8,13.6-9.2,27.4-14.3,42.3c-2.6-12.8-4.6-24.4-7.3-35.9c-10.7-45.4-21.5-90.8-32.7-136.1c-7.4-30-15.8-59.7-23.3-89.7c-1.3-5.3-3.5-6.6-8.7-6.6c-32.5,0.3-65,0.1-97.5,0.1c-5.5,0-13.7,6.7-14.4,12.2c-2.7,20.9-5.3,41.9-8,62.8c-2.5,20.3-5.1,40.6-7.6,60.9c-2.5,20.1-4.9,40.3-7.4,60.4c-2.5,20-5,39.9-7.5,59.9c-2.2,17.5-4.3,35-6.5,52.5c-2.5,20.3-5.1,40.5-7.6,60.8c-1.3,10.7-2.4,21.4-3.7,33.3c-1.3-2.1-2.3-3.3-3-4.6c-23.3-43.3-39.3-89.2-45.9-137.9C70.1,447.2,102.9,332,188.7,233.4C250.5,162.3,328.8,117.7,421,98.1c36-7.7,72.6-10.1,109.2-8c79.4,4.6,152,29.4,217.6,74.5c3.8,2.6,5,5.3,5,9.8c-0.1,106.2-0.2,212.3,0.1,318.5c0.1,28.9,1.7,57.9,2.6,86.8C755.6,581.7,755.5,583.6,755.5,586.5z"/></g></svg>